Simulation
nRows=35
nColumns=15
endheader
time  TH_x TH_y TH_z SC_y  SC_z  SC_x  AC_y  AC_z  AC_x  GH_y  GH_z  GH_yy  EL_x  PS_y
5.382082397003745  0.000000  0.000000  0.000000  -32.204824876158774  11.163435629385816  18.404914833944886  54.89102045847244  18.74312150159364  14.326314722895976  -3.8303026819892447  61.463800823485784  6.4007257840403815  13.451678970004444  120.000000
5.422247191011236  0.000000  0.000000  0.000000  -32.128115832824534  11.072084539421805  18.446069733827084  54.91554236496211  18.61709943853117  14.02728342634652  -3.678441331565013  61.53788335928499  6.088113351699172  13.473582895387521  120.000000
5.4624119850187265  0.000000  0.000000  0.000000  -31.934879804848876  10.96985242301269  18.320403468626033  54.955055136673856  18.478968596364446  13.643963508076759  -3.5309634863169315  61.369536296230855  5.85317763229769  13.415008475529818  120.000000
5.502576779026217  0.000000  0.000000  0.000000  -31.626124379675993  10.855978002148962  18.02131475963317  55.01418176087992  18.324746484849555  13.17900352161443  -3.390522080535355  60.942112440228854  5.687026410103183  13.291841253937676  120.000000
5.542741573033708  0.000000  0.000000  0.000000  -31.206208421089  10.727662048453547  17.54516492106935  55.09727215728825  18.14945102950087  12.638990691713571  -3.260509340618445  60.242270316146225  5.578754773440702  13.126152297648197  120.000000
5.582906367041199  0.000000  0.000000  0.000000  -30.683348313063455  10.580072528122564  16.89166916454203  55.20724174457195  17.94726164846987  12.034465507704384  -3.1435578725348368  59.26209572504496  5.518098748095262  12.942212682101758  120.000000
5.623071161048689  0.000000  0.000000  0.000000  -30.07015103212468  10.406725262899682  16.06416885624422  55.34462837260041  17.71213864376219  11.379614187514312  -3.0404859512402314  58.00107251220101  5.4981130131986635  12.762334365804561  120.000000
5.66323595505618  0.000000  0.000000  0.000000  -29.38368378573606  10.20023105343313  15.070175147830147  55.50712877084205  17.438374572291767  10.691723705348542  -2.9497532460741285  56.46750227713933  5.517329814901206  12.60343864192265  120.000000
5.70340074906367  0.000000  0.000000  0.000000  -28.644853650075618  9.953205438956688  13.92161781832028  55.689772550852524  17.121434821059086  9.990654829224848  -2.8673932047465867  54.6788125789482  5.580759747312895  12.475239161851174  120.000000
5.743565543071161  0.000000  0.000000  0.000000  -27.877068134393824  9.659286567293261  12.635064595560808  55.8856341462939  16.758583013520873  9.298123310171215  -2.7875183697838946  52.660593313127734  5.699783057078892  12.380304229100105  120.000000
5.7837303370786515  0.000000  0.000000  0.000000  -27.104477584752587  9.314170852248784  11.231363118972464  56.08695079502322  16.34961195634254  8.636655035265932  -2.7033274556689086  50.44457364026616  5.890989193511538  12.315389374396348  120.000000
5.823895131086142  0.000000  0.000000  0.000000  -26.350335909583155  8.916554397064324  9.73503127089172  56.2863469196863  15.897258108526078  8.02823900619007  -2.6084699211054474  48.06600167173507  6.174772657916885  12.273440553561464  120.000000
5.864059925093633  0.000000  0.000000  0.000000  -25.635558131745046  8.468911433944804  8.173078293079348  56.47788912272003  15.407282210136204  7.492622267999864  -2.498726735723975  45.560991487858686  6.57382405423043  12.245590553709361  120.000000
5.904224719101124  0.000000  0.000000  0.000000  -24.977982828542256  7.977717342941145  6.573706568131696  56.65771475412478  14.888107906536874  7.045892349903479  -2.3738062131897513  42.96411511158208  7.1121264038595955  12.222963506000442  120.000000
5.944389513108614  0.000000  0.000000  0.000000  -24.391898072204317  7.453331745108637  4.965058114017031  56.82408978763044  14.35012916745442  6.6993714089292  -2.2387996797366343  40.30681688619682  7.814181141973982  12.198011442718602  120.000000
5.984554307116105  0.000000  0.000000  0.000000  -23.887808284608454  6.909430427321102  3.3743971780310655  56.97724352673585  13.80523188919933  6.45913512765419  -2.1053604958057472  37.61666146861623  8.704679289836236  12.165393411880398  120.000000
6.024719101123596  0.000000  0.000000  0.000000  -23.47227547905875  6.362341795766828  1.8276567309638512  57.118925071177294  13.266230072654938  6.326046566737747  -1.9923470582467997  34.91737506482837  9.808350448821173  12.122680335632191  120.000000
6.064883895131086  0.000000  0.000000  0.000000  -23.147914784848563  5.830065360866544  0.34912823392902026  57.252111804230054  12.746423780667827  6.295952490188699  -1.9262555332343314  32.22920912426088  11.150058483572506  12.070711235010354  120.000000
6.1050486891385765  0.000000  0.000000  0.000000  -22.91343780667111  5.331110003373012  -1.0387648230179733  57.380523809816495  12.258941058041465  6.360482526086461  -1.9412600461268792  29.56954516208727  12.755256182007697  12.014003361653419  120.000000
6.145213483146067  0.000000  0.000000  0.000000  -22.76348973560938  4.883206158844446  -2.3155946963454754  57.50882092130756  11.816121100897902  6.507804518085928  -2.078449485056961  26.953641479958634  14.650071771244841  11.960643612027074  120.000000
6.185378277153558  0.000000  0.000000  0.000000  -22.688809302222833  4.501878923307551  -3.463259281407118  57.642410535160685  11.428963200690465  6.724007077550899  -2.3849388054337646  24.395298586037683  16.861854327501483  11.921877898281167  120.000000
6.225543071161049  0.000000  0.000000  0.000000  -22.6767909253172  4.199129505516352  -4.466734915021172  57.78741068981684  11.106450799368737  6.9941768029412925  -2.913581047945364  21.90751947099814  19.42054006404861  11.911317022339317  120.000000
6.265707865168539  0.000000  0.000000  0.000000  -22.712625227446114  3.982127560176059  -5.31437982549018  57.950126647628835  10.85457680790559  7.303219196802715  -3.7245442698569033  19.502657876461758  22.361660102135502  11.943477604657197  120.000000
6.30587265917603  0.000000  0.000000  0.000000  -22.78129310684444  3.852593899210127  -5.998573078684442  58.13583568398607  10.675820539918064  7.637163148412071  -4.890400987177674  17.192665403359506  25.732574669795845  12.032442616427693  120.000000
6.346037453183521  0.000000  0.000000  0.000000  -22.86936180283484  3.8072946799298464  -6.516423147233867  58.347835780082555  10.569460078918006  7.983711412443734  -6.504651080555714  14.989502495433923  29.601800927909714  12.190111100687533  120.000000
6.386202247191012  0.000000  0.000000  0.000000  -22.966135837801467  3.8392439233821265  -6.869470725558236  58.58677366208351  10.532014418124382  8.331819085119445  -8.697824308738662  12.905706015054975  34.075125879325554  12.424538116672696  120.000000
6.426367041198501  0.000000  0.000000  0.000000  -23.064554959684067  3.9394239264209863  -7.063576449351391  58.851046017933285  10.557966281950902  8.670874732812004  -11.661812293374192  10.955089681983505  39.3196567689803  12.73876740794292  120.000000
6.466531835205992  0.000000  0.000000  0.000000  -23.161069293894098  4.09738717252792  -7.1086501142953935  59.136802240206556  10.639482790476519  8.991453329543694  -15.687177791889722  9.15275840879456  45.600804904204566  13.13010358743275  120.000000
6.506696629213483  0.000000  0.000000  0.000000  -23.25541444576556  4.30023576997676  -7.018111782747681  59.438659580177834  10.76602879070915  9.28620574495824  -21.22009057198005  7.516043458659124  53.339023298094865  13.589909849794523  120.000000
6.546861423220974  0.000000  0.000000  0.000000  -23.349810161745115  4.533726185882792  -6.808122211469887  59.749137836238596  10.924960637192731  9.550209207023803  -28.968687381963367  6.068642185398475  63.21575400740702  14.103069563450603  120.000000
6.587026217228464  0.000000  0.000000  0.000000  -23.44935634231022  4.784816067202956  -6.49663697330685  60.05640513187255  11.102748580830848  9.780296083051498  -40.05660090093648  4.852516716733377  76.32688595339087  14.647555278158054  120.000000
6.627191011235955  0.000000  0.000000  0.000000  -23.561250434205473  5.043421318372301  -6.103050235424434  60.3466452976415  11.286043525241404  9.972069418504212  -55.89103488709896  3.94589151966062  94.05186593984921  15.195726598155181  120.000000
6.667355805243446  0.000000  0.000000  0.000000  -23.691166442470948  5.302878213859203  -5.648314343959923  60.607381908545364  11.461572366543567  10.120143482799326  -76.71555226326292  3.4632092751322765  116.60912695435093  15.717980969629327  120.000000
6.707520599250937  0.000000  0.000000  0.000000  -23.842804229966205  5.557201530105238  -5.153434616373005  60.82763083821122  11.615672347013106  10.221351276454735  -99.05272405340197  3.477314714334545  140.50214958497065  16.18727451788299  120.000000
6.747685393258427  0.000000  0.000000  0.000000  -24.016510728192035  5.79956221806913  -4.63845333285015  61.00091409005834  11.73532596875718  10.274812436766693  -117.84028058896237  3.9115117274162667  160.6574832652499  16.582838979695776  120.000000
